<?xml version="1.0" encoding="utf-8"?>
<!-- Generator: Adobe Illustrator 23.0.3, SVG Export Plug-In . SVG Version: 6.00 Build 0)  -->
<svg version="1.1" id="Layer_1" xmlns="http://www.w3.org/2000/svg" xmlns:xlink="http://www.w3.org/1999/xlink" width="155px" height="155px"
	 xml:space="preserve">
<style type="text/css">
.st0{fill:#FFFFFF;}
.st1{fill:#EE0000;}
</style>
<title>Logo-Red_Hat-Ansible_Automation-A-Reverse-SVG</title>
<circle class="st1" cx="76.9" cy="77.4" r="76.4"/>
<path class="st0" d="M113.1,107.9l-30.3-73c-0.7-2-2.6-3.3-4.7-3.2c-2.1-0.1-4.1,1.2-4.8,3.2L39.9,115h11.4l13.2-33l39.3,31.8
	c1.6,1.3,2.7,1.9,4.2,1.9c3,0.1,5.5-2.3,5.6-5.3c0,0,0-0.1,0-0.1C113.5,109.4,113.4,108.7,113.1,107.9z M78.1,48l19.7,48.7L68,73.2
	L78.1,48z"/>
</svg>
