<svg xmlns="http://www.w3.org/2000/svg" xmlns:xlink="http://www.w3.org/1999/xlink" version="1.1" id="Lockup" x="0px" y="0px" width="268.6400146px" height="56.1800003px" viewBox="0 0 268.6400146 56.1800003" enable-background="new 0 0 268.6400146 56.1800003" xml:space="preserve">
	<g>
		
		<g id="XMLID_5_">
			<path id="XMLID_14_" d="M26.460165,7.513381C28.0771942,5.4908295,29.1745014,2.7751205,28.8850975,0   c-2.3671093,0.1177039-5.2557106,1.5616617-6.9280739,3.5858014c-1.5016003,1.7333629-2.8306351,4.5627699-2.4841633,7.2215576   C22.1300602,11.037858,24.7848053,9.4791927,26.460165,7.513381"/>
			<path id="XMLID_6_" d="M28.8549023,11.326499c-3.8588982-0.2298632-7.1399002,2.1901054-8.9827271,2.1901054   c-1.8438358,0-4.6657953-2.0742741-7.7179785-2.0183744c-3.9726057,0.0583477-7.6587281,2.3044977-9.6746559,5.8769131   c-4.1464252,7.146595-1.0942432,17.7475071,2.9379346,23.568018c1.9581194,2.8795853,4.3179765,6.0502281,7.4274631,5.9363403   c2.9379349-0.1152916,4.0894814-1.9023628,7.660675-1.9023628c3.5685616,0,4.6058617,1.9023628,7.7158527,1.8447342   c3.2251377-0.057663,5.2414246-2.8810272,7.1995049-5.7634201c2.2463303-3.2825851,3.1658936-6.4521828,3.2237358-6.6261826   c-0.0578423-0.0576286-6.2189713-2.4211922-6.2760963-9.5083961c-0.0581665-5.9342175,4.8371696-8.7568607,5.0675697-8.9319038   C34.6717415,11.9033518,30.3523617,11.4423304,28.8549023,11.326499"/>
		</g>
	</g>
</svg>