<?xml version="1.0" encoding="utf-8"?>
<!-- Generator: Adobe Illustrator 22.0.1, SVG Export Plug-In . SVG Version: 6.00 Build 0)  -->
<svg version="1.1" id="Layer_1" xmlns="http://www.w3.org/2000/svg" xmlns:xlink="http://www.w3.org/1999/xlink" x="0px" y="0px"
	 width="142px" height="138.46px" viewBox="0 0 142px 138.46" enable-background="new 0 0 142px 138.46" xml:space="preserve">
<g>
	<path fill="#01579B" d="M31.65,109.5L8.38,86.23C5.62,83.4,3.91,79.4,3.91,75.49c0-1.81,1.02-4.64,1.79-6.26l21.48-44.74
		L31.65,109.5z"/>
	<path fill="#40C4FF" d="M111.3,28.96L88.03,5.69C86,3.65,81.77,1.22,78.19,1.22c-3.08,0-6.1,0.62-8.05,1.79L27.19,24.49
		L111.3,28.96z"/>
	<polygon fill="#40C4FF" points="59.39,137.24 115.77,137.24 115.77,113.08 73.71,99.65 35.23,113.08 		"/>
	<path fill="#29B6F6" d="M27.18,96.97c0,7.18,0.9,8.94,4.47,12.53l3.58,3.58h80.54L76.4,68.34L27.18,24.49V96.97z"/>
	<path fill="#01579B" d="M98.77,24.48H27.18l88.59,88.59h24.16V57.59l-28.64-28.64C107.27,24.92,103.7,24.48,98.77,24.48z"/>
	<path opacity="0.2" fill="#FFFFFF" enable-background="new    " d="M32.55,110.39c-3.58-3.59-4.47-7.13-4.47-13.42V25.38
		l-0.89-0.89v72.48C27.18,103.26,27.18,105,32.55,110.39l2.68,2.68l0,0L32.55,110.39z"/>
	<polygon opacity="0.2" fill="#263238" enable-background="new    " points="139.04,56.7 139.04,112.18 114.88,112.18 
		115.77,113.08 139.93,113.08 139.93,57.59 		"/>
	<path opacity="0.2" fill="#FFFFFF" enable-background="new    " d="M111.3,28.96c-4.44-4.44-8.07-4.47-13.42-4.47H27.19l0.89,0.89
		h69.8C100.55,25.38,107.29,24.93,111.3,28.96L111.3,28.96z"/>
	
		<radialGradient id="SVGID_1_" cx="71.915" cy="62.2171" r="68" gradientTransform="matrix(1 0 0 -1 0 131.4443)" gradientUnits="userSpaceOnUse">
		<stop  offset="0" style="stop-color:#FFFFFF;stop-opacity:0.1"/>
		<stop  offset="1" style="stop-color:#FFFFFF;stop-opacity:0"/>
	</radialGradient>
	<path opacity="0.2" fill="url(#SVGID_1_)" enable-background="new    " d="M139.04,56.7L111.3,28.96L88.03,5.69
		C86,3.65,81.77,1.22,78.19,1.22c-3.08,0-6.1,0.62-8.05,1.79L27.19,24.49L5.71,69.23c-0.77,1.63-1.79,4.46-1.79,6.26
		c0,3.91,1.72,7.9,4.47,10.74l21.44,21.29c0.51,0.63,1.11,1.27,1.82,1.98l0.89,0.89l2.68,2.68l23.27,23.27l0.89,0.89h55.48h0.89
		v-24.16h24.16v-0.06V57.59L139.04,56.7z"/>
</g>
</svg>
