<svg xmlns="http://www.w3.org/2000/svg" contain="paint" buffered-rendering="static" viewBox="0 0 512 512" class="topnav__item__g2 icon-g2-logo nessy-only">
<path fill='#ff492c' d="M445.242 151.214h-76.489c2.078-12.016 9.473-18.718 24.495-26.343l14.097-7.165c25.188-12.938 38.589-27.498 38.589-51.301 0-15.02-5.777-26.806-17.33-35.356-11.323-8.55-25.188-12.709-41.132-12.709-12.712 0-24.265 3.233-34.896 9.935-10.398 6.472-18.256 14.79-23.107 25.188l22.184 22.188c8.55-17.333 21.029-25.883 37.437-25.883 13.864 0 22.414 7.165 22.414 17.1 0 8.32-4.159 15.252-20.103 23.34l-9.013 4.391c-19.644 9.935-33.278 21.259-41.136 34.201-7.855 12.709-11.783 29.116-11.783 48.76v5.314h115.773v-31.66zM435.017 219.437H308.359l-63.33 109.689h126.659l63.329 109.689 63.329-109.689z"></path>
<path fill='#ff492c' d="M255.941 402.251c-80.643 0-146.251-65.608-146.251-146.251s65.608-146.252 146.251-146.252L306.012 4.969a257.144 257.144 0 0 0-50.071-4.91C114.589.059 0 114.648 0 256s114.589 255.941 255.941 255.941c56.357 0 108.449-18.23 150.731-49.094l-55.446-96.035c-25.616 22.059-58.907 35.439-95.285 35.439z"></path>
</svg>