<svg class="index-log index-log-1" version="1.1" id="图层_1" xmlns="http://www.w3.org/2000/svg" xmlns:xlink="http://www.w3.org/1999/xlink" x="0px" y="0px" width="100px" height="100px" viewBox="0 0 1024 1024" enable-background="new 0 0 1024 1024" xml:space="preserve" p-id="130"><g p-id="131"><path fill="#FF0000" d="M546.368,141.385c-5.099-5.25-4.062-13.343-2.823-26.681c1.665-17.962-33.868,8.208-55.655,25.83
            C311.533,152.947,172.314,299.94,172.314,479.458c0,187.656,152.124,339.78,339.78,339.78s339.78-152.124,339.78-339.78
            C851.878,303.371,717.929,158.569,546.368,141.385z" p-id="132" data-spm-anchor-id="a313x.7781069.1998910419.i0"></path><path fill="#FFFFFF" d="M820.57,500.997c-2.099-44.066-11.937-84.195-29.512-120.393c-17.571-36.199-40.392-67.151-68.459-92.852
            c-28.068-25.706-60.197-45.642-96.395-59.806c-33.411-13.076-68.386-20.099-104.925-21.106
            c-6.211,5.916-11.887,15.759,1.374,26.542c21.357,17.369-10.443,28.459-27.224,23.94c17.606,2.555,48.79-6.625,18.682-24.974
            c-13.35-8.243-9.904-18.976-5.727-25.605c-37.5,0.453-73.768,7.767-108.809,21.989c-36.199,14.69-68.328,35.145-96.395,61.378
            c-28.068,26.228-51.016,57.312-68.854,93.247s-28.068,75.15-30.689,117.641c-2.099,36.199,1.444,69.772,10.625,100.724
            c9.184,30.952,22.426,58.756,39.741,83.413c17.311,24.656,38.165,45.77,62.559,63.345s50.757,31.084,79.084,40.523
            c5.246,1.576,11.407,4.201,18.492,7.868c7.082,3.674,13.904,8.003,20.459,12.986c6.559,4.983,12.723,10.23,18.496,15.735
            c5.769,5.51,10.23,10.625,13.378,15.344c7.341,12.065,13.114,22.953,17.311,32.66c4.193,9.703,7.868,18.097,11.016,25.183
            c3.148,7.082,6.032,12.588,8.658,16.525c2.621,3.934,6.029,5.897,10.23,5.897c3.674,0,7.082-2.23,10.23-6.687
            c3.148-4.46,6.296-10.489,9.444-18.101c3.148-7.604,6.818-16.13,11.016-25.57c4.193-9.444,9.44-18.887,15.736-28.331
            c7.345-11.016,17.443-21.772,30.294-32.261c12.851-10.497,24.788-17.838,35.804-22.035c28.327-10.497,54.819-24.265,79.475-41.317
            c24.656-17.048,45.774-37.507,63.345-61.374c17.575-23.87,31.084-51.152,40.527-81.841C818.994,573,822.664,538.772,820.57,500.997
            z M364.299,595.604c-3.341,1.417-7.19,2.517-11.55,3.303s-9.045,1.181-14.055,1.181s-9.695-0.391-14.055-1.181
            c-4.36-0.786-8.208-1.89-11.55-3.303c-3.341-1.413-5.936-3.047-7.79-4.894c25.109,4.05,42.908,3.605,66.794,0
            C370.235,592.557,367.637,594.191,364.299,595.604z M433.413,528.616c-5.246,11.074-12.46,20.85-21.64,29.326
            c-9.184,8.479-19.936,15.077-32.265,19.785c-12.324,4.712-25.57,7.07-39.738,7.07c-14.167,0-27.409-2.354-39.741-7.07
            c-12.324-4.712-23.212-11.306-32.656-19.785c-9.444-8.48-16.789-18.252-22.035-29.326c-5.246-11.07-7.868-22.964-7.868-35.684
            s2.621-24.614,7.868-35.687c5.246-11.074,12.592-20.73,22.035-28.974c9.444-8.243,20.328-14.841,32.656-19.785
            c12.328-4.948,25.574-7.419,39.741-7.419c14.164,0,27.409,2.474,39.738,7.419c12.328,4.944,23.084,11.542,32.265,19.785
            c9.176,8.243,16.394,17.9,21.64,28.974c5.246,11.074,7.868,22.968,7.868,35.687C441.28,505.651,438.659,517.546,433.413,528.616z
             M511.722,649.733c-0.736,5.169-1.475,10.799-2.215,16.889c-0.736,6.091-3.508,10.245-8.305,12.46
            c-2.215,1.107-4.894,1.661-8.03,1.661c-3.14,0-6.091-0.554-8.863-1.661c-2.769-1.111-5.076-2.954-6.923-5.537
            c-1.847-2.586-2.769-5.909-2.769-9.97c0-4.43,0.925-8.952,2.769-13.567c1.847-4.615,4.155-8.863,6.923-12.739
            c2.769-3.876,5.905-7.105,9.417-9.691c3.508-2.583,6.919-4.244,10.245-4.983c2.583-0.368,4.429,0.372,5.537,2.215
            c1.111,1.847,1.94,4.155,2.493,6.919c0.554,2.768,0.739,5.816,0.554,9.138C512.369,644.196,512.09,647.147,511.722,649.733z
             M555.192,673.546c-2.029,2.583-4.429,4.429-7.198,5.537c-2.769,1.107-5.63,1.661-8.584,1.661c-2.951,0-5.537-0.554-7.752-1.661
            c-4.801-2.215-7.752-6.369-8.859-12.46c-1.111-6.091-1.847-11.72-2.215-16.889c-0.372-2.583-0.554-5.537-0.554-8.863
            c0-3.322,0.186-6.365,0.554-9.138c0.372-2.768,1.2-5.076,2.49-6.919c1.293-1.847,3.233-2.586,5.816-2.215
            c3.326,0.74,6.737,2.401,10.245,4.983c3.508,2.586,6.644,5.816,9.413,9.691c2.768,3.876,5.076,8.123,6.923,12.739
            c1.847,4.611,2.768,9.138,2.768,13.567C558.236,667.637,557.225,670.959,555.192,673.546z M723.412,595.604
            c-3.341,1.417-7.19,2.517-11.55,3.303c-4.36,0.786-9.045,1.181-14.055,1.181c-5.01,0-9.695-0.391-14.055-1.181
            c-4.36-0.786-8.208-1.89-11.55-3.303c-3.341-1.417-5.936-3.047-7.79-4.894c25.109,4.05,42.908,3.605,66.794,0
            C729.347,592.557,726.749,594.191,723.412,595.604z M785.157,528.616c-5.25,11.074-12.592,20.85-22.031,29.326
            c-9.444,8.479-20.328,15.077-32.66,19.785c-12.324,4.712-25.57,7.07-39.734,7.07s-27.409-2.354-39.741-7.07
            c-12.324-4.712-23.212-11.306-32.656-19.785c-9.444-8.48-16.785-18.252-22.031-29.326c-5.246-11.07-7.868-22.964-7.868-35.684
            s2.621-24.614,7.868-35.687c5.246-11.074,12.588-20.85,22.031-29.326c9.444-8.479,20.328-15.077,32.656-19.785
            c12.328-4.712,25.574-7.066,39.741-7.066s27.409,2.354,39.734,7.066c12.328,4.712,23.216,11.306,32.66,19.785
            c9.44,8.48,16.785,18.252,22.031,29.326c5.246,11.074,7.868,22.968,7.868,35.687C793.025,505.651,790.404,517.546,785.157,528.616z" p-id="133"></path></g></svg>