<svg xmlns="http://www.w3.org/2000/svg" id="logo" viewBox="0 0 400 400" fill="url(#logo-gradient)">
<defs>
<radialGradient id="logo-gradient" cx="0%" cy="0%" r="100%" fx="0%" fy="0%">
	<stop offset="0%" stop-color="#20C6B7"/>
	<stop offset="100%" stop-color="#4D9ABF"/>
</radialGradient>
</defs>

<path id="logomark" d="M290 139l-1-1 8-50 38 38-39 17h-1l-5-4zm55-3l40 40c9 9 13 13 14 18l1 2-97-41-1-1 1-1 42-17zm53 73c-2 4-6 8-13 15l-45 45-59-12h-1l-1-1c0-5-3-9-7-12v-1l11-68v-1l1-1c5 0 9-3 12-7h2l100 43zm-69 71l-75 75 13-79 1-1 7-5 1-1 53 11zm-91 91l-8 8-94-135v-1l1-2 1-1h1l103 22h1v1c2 5 6 10 11 12v1l-16 95zm-17 17c-7 6-10 10-15 11h-12c-5-2-9-6-18-14l-94-94 25-38h1a25 25 0 0 0 18-1h1l94 136zM73 282l-21-21 42-19h1l1 1 1 2v1l-24 36zm-31-31l-27-27-10-11 83 17 1 1-1 1-46 19zM0 199l1-5c1-5 6-9 14-18l35-35a22695 22695 0 0 0 48 70l1 1a29 29 0 0 0-5 6h-1L0 199zm59-67l47-47 35 15a5977 5977 0 0 1 25 11l-1 5c0 5 2 10 6 14v2l-48 73v1h-1l-6-1-5 1h-1v-1l-51-73zm57-56l60-61c9-8 13-12 18-14h12c5 2 10 6 18 14l13 13-43 67v1h-1l-7-1c-5 0-10 1-13 4h-2l-55-23zm130-39l40 40-9 60h-1v1a19 19 0 0 0-6 3h-1l-61-26-1-1a23 23 0 0 0-3-9v-2l42-66zm-41 90l57 24 1 1v5l-1 1-127 54-1-1 1-1 47-72 1-1h3a21 21 0 0 0 18-10h1zm-65 96l128-55 1 1 1 1h1v1l-11 68v1c-6 0-12 4-15 9v1h-1l-102-22-2-5z"></path>
</svg>