<svg fill="#000000" xmlns="http://www.w3.org/2000/svg" viewBox="0 0 80 80" width="240px" height="240px"><path d="M 21 9 C 17.698375 9 15 11.698375 15 15 L 15 65 C 15 68.301625 17.698375 71 21 71 L 59 71 C 62.301625 71 65 68.301625 65 65 L 65 24.585938 L 49.414062 9 L 49 9 L 21 9 z M 21 11 L 48 11 L 48 20 C 48 23.301625 50.698375 26 54 26 L 63 26 L 63 65 C 63 67.220375 61.220375 69 59 69 L 21 69 C 18.779625 69 17 67.220375 17 65 L 17 15 C 17 12.779625 18.779625 11 21 11 z M 50 12.414062 L 61.585938 24 L 54 24 C 51.779625 24 50 22.220375 50 20 L 50 12.414062 z M 22 15 A 1 1 0 0 0 21 16 A 1 1 0 0 0 22 17 A 1 1 0 0 0 23 16 A 1 1 0 0 0 22 15 z M 22 19 A 1 1 0 0 0 21 20 A 1 1 0 0 0 22 21 A 1 1 0 0 0 23 20 A 1 1 0 0 0 22 19 z M 22 23 A 1 1 0 0 0 21 24 A 1 1 0 0 0 22 25 A 1 1 0 0 0 23 24 A 1 1 0 0 0 22 23 z M 22 27 A 1 1 0 0 0 21 28 A 1 1 0 0 0 22 29 A 1 1 0 0 0 23 28 A 1 1 0 0 0 22 27 z M 22 31 A 1 1 0 0 0 21 32 A 1 1 0 0 0 22 33 A 1 1 0 0 0 23 32 A 1 1 0 0 0 22 31 z M 22 35 A 1 1 0 0 0 21 36 A 1 1 0 0 0 22 37 A 1 1 0 0 0 23 36 A 1 1 0 0 0 22 35 z M 28 37 L 28 38 L 28 57 L 55 57 L 55 37 L 28 37 z M 22 39 A 1 1 0 0 0 21 40 A 1 1 0 0 0 22 41 A 1 1 0 0 0 23 40 A 1 1 0 0 0 22 39 z M 30 39 L 35 39 L 35 43 L 30 43 L 30 39 z M 37 39 L 53 39 L 53 43 L 37 43 L 37 39 z M 22 43 A 1 1 0 0 0 21 44 A 1 1 0 0 0 22 45 A 1 1 0 0 0 23 44 A 1 1 0 0 0 22 43 z M 30 45 L 35 45 L 35 49 L 30 49 L 30 45 z M 37 45 L 53 45 L 53 49 L 37 49 L 37 45 z M 22 47 A 1 1 0 0 0 21 48 A 1 1 0 0 0 22 49 A 1 1 0 0 0 23 48 A 1 1 0 0 0 22 47 z M 22 51 A 1 1 0 0 0 21 52 A 1 1 0 0 0 22 53 A 1 1 0 0 0 23 52 A 1 1 0 0 0 22 51 z M 30 51 L 35 51 L 35 55 L 30 55 L 30 51 z M 37 51 L 53 51 L 53 55 L 37 55 L 37 51 z M 22 55 A 1 1 0 0 0 21 56 A 1 1 0 0 0 22 57 A 1 1 0 0 0 23 56 A 1 1 0 0 0 22 55 z M 22 59 A 1 1 0 0 0 21 60 A 1 1 0 0 0 22 61 A 1 1 0 0 0 23 60 A 1 1 0 0 0 22 59 z M 22 63 A 1 1 0 0 0 21 64 A 1 1 0 0 0 22 65 A 1 1 0 0 0 23 64 A 1 1 0 0 0 22 63 z"/></svg>