<svg xmlns="http://www.w3.org/2000/svg" viewBox="0 0 456 172.1"><defs><filter id="a" color-interpolation-filters="sRGB"><feFlood flood-opacity=".5" flood-color="#000" result="flood"/><feComposite in="flood" in2="SourceGraphic" operator="out" result="composite1"/><feGaussianBlur in="composite1" stdDeviation="3" result="blur"/><feOffset dx="1" dy="3" result="offset"/><feComposite in="offset" in2="SourceGraphic" operator="atop" result="composite2"/></filter><filter id="b" color-interpolation-filters="sRGB"><feFlood flood-opacity=".5" flood-color="#000" result="flood"/><feComposite in="flood" in2="SourceGraphic" operator="out" result="composite1"/><feGaussianBlur in="composite1" stdDeviation="3" result="blur"/><feOffset dx="1" dy="3" result="offset"/><feComposite in="offset" in2="SourceGraphic" operator="atop" result="composite2"/></filter><filter id="c" color-interpolation-filters="sRGB"><feFlood flood-opacity=".5" flood-color="#000" result="flood"/><feComposite in="flood" in2="SourceGraphic" operator="out" result="composite1"/><feGaussianBlur in="composite1" stdDeviation="3" result="blur"/><feOffset dx="1" dy="3" result="offset"/><feComposite in="offset" in2="SourceGraphic" operator="atop" result="composite2"/></filter></defs><path d="M71.1 58.1h33.2v47.4c0 5.5.2 9.7.5 12.8.3 3.1 1 5.5 2 7.3 1 1.8 2.1 3.1 3.5 3.9 1.4.8 3.2 1.2 5.3 1.2 2.1 0 4.3-.7 6.7-2 2.3-1.3 4.3-3.1 5.9-5.5 1.6-2.4 2.4-4.9 2.4-7.6v-33c0-4.2-.1-7.2-.3-9.3-.2-2-.5-3.6-1-4.7s-1.2-2.1-2.3-2.9c-1-.8-2.7-1.5-5-2.2v-5.6h33.3v59.8c0 4.3.1 7.5.2 9.5s.5 3.6 1 4.8c.5 1.2 1.3 2.2 2.5 2.9 1.1.8 3 1.4 5.7 2v5.7l-23.2.8h-10.3l.8-12.3-1-.3c-5.3 4.9-10 8.3-14.2 10.3-4.2 1.9-8.3 2.9-12.6 2.9-6 0-10.9-1.1-14.5-3.4-3.6-2.3-6.2-5.6-7.8-9.9-1.6-4.4-2.4-10-2.4-16.9v-31c0-3.2 0-5.6-.1-7.3-.1-1.7-.2-3-.4-4-.2-.9-.4-1.8-.7-2.6-.3-.8-.7-1.5-1.3-2.1-.5-.6-1.3-1.2-2.2-1.7-.9-.5-2.2-1-3.8-1.4v-5.6zm162.5 74.5c-5 4.3-9.6 7.3-13.7 9-4.1 1.7-8.4 2.6-13 2.6-8.5 0-14.8-2.3-19-6.9-4.2-4.6-6.3-11.5-6.3-20.8V68.8h-10.7v-5.9c3.5-.6 6-1.4 7.7-2.6 1.7-1.1 2.9-2.7 3.8-4.6.9-1.9 1.6-4.4 2.2-7.5.5-3.1 1-6.9 1.2-11.5h20.4v21.4h24.4v10.7h-24.4v38.5c0 6.4.3 11.2.9 14.3.6 3.1 1.6 5.3 3 6.8s3.2 2.2 5.3 2.2c1.6 0 3-.1 4.3-.4 1.3-.3 2.6-.8 4-1.5s2.9-1.8 4.4-3.2l5.5 7.1zm10.9 4.6c2.7-.8 4.5-1.7 5.6-2.6 1.1-1 1.8-2.3 2.3-4.1.5-1.7.7-4.8.7-9.1V68.8h-10.4v-5.9c2.7-.4 4.5-.8 5.6-1.3 1.1-.5 1.9-1.1 2.6-2 .7-.8 1.2-1.9 1.6-3.2.4-1.3.7-3 .9-5 .9-10.3 4.7-18 11.4-23.3 6.7-5.3 16.2-7.9 28.4-7.9 4.9 0 9.3.4 13.1 1.2v17.4h-11.6c-1-3.1-2-5.4-3.2-6.9-1.2-1.5-2.7-2.2-4.6-2.2-2.5 0-4.3.8-5.6 2.4-1.3 1.6-2.2 3.9-2.7 6.9-.5 3-.7 7.2-.7 12.6v6.5h16.5v10.7h-16.5v52.6c0 4.3.2 7.3.7 9.1.5 1.8 1.3 3.2 2.4 4.2 1.2 1 3.2 1.9 6.2 2.6v5.6h-42.6v-5.7zm133.4-50.35l.2.97c6.6 2.3 11.6 5.6 15 9.85 3.4 4.26 5.1 9.4 5.1 15.35 0 5.94-1.8 11.17-5.4 15.6-3.6 4.44-8.8 7.9-15.5 10.4-6.8 2.47-14.7 3.62-23.7 3.62-8.6 0-16.1-1.15-22.5-3.37-6.4-2.22-11.4-5.5-14.9-9.84-3.5-4.35-5.3-9.4-5.3-15.26 0-4.26.9-8.07 2.7-11.35 1.8-3.3 4.2-5.95 7.1-8.17 2.9-2.12 6.5-4.08 10.6-5.76l-.2-1c-12.6-4.9-18.9-13-18.9-24.2 0-5.2 1.8-9.8 5.4-14 3.6-4.1 8.8-7.4 15.4-9.7 6.7-2.3 14.1-3.5 22.3-3.5 13.8 0 24.3 2.2 31.4 6.7 7.1 4.5 10.6 10.8 10.6 19 0 5.5-1.6 10.2-4.8 14.3-3.3 4.32-8.1 7.6-14.6 10.1zm-41.1 25.54c0 7.1 1.5 12.6 4.5 16.3 3 3.6 7.4 5.5 13.4 5.5 3.7 0 6.8-.8 9.4-2.3 2.6-1.5 4.6-3.8 6-7 1.4-3.1 2.1-6.9 2.1-11.2 0-4.5-.7-8.4-2.1-11.6-1.4-3.3-3.5-5.8-6.2-7.6-2.7-1.8-5.8-2.7-9.4-2.7-4.3 0-7.7.9-10.3 2.6-2.6 1.8-4.5 4.16-5.6 7.3-1.3 3-1.8 6.44-1.8 10.43zm1-49.2c0 6.6 1.5 11.7 4.4 15.1 2.9 3.5 7.2 5.2 12.9 5.2 5.5 0 9.7-1.7 12.4-5 2.8-3.3 4.1-8 4.1-14.1 0-6.3-1.4-11.1-4.3-14.4-2.9-3.3-7-5-12.4-5-5.6 0-9.9 1.5-12.8 4.5-2.9 3.1-4.3 7.54-4.3 13.5z" transform="translate(-6.9 -11.4)" fill="#037f8c" filter="url(#a)"/><path d="M89.2 147.4v15.8h5.5c1.1 0 1.9.2 2.4.6.5.4.7 1 .7 1.7s-.2 1.2-.7 1.7c-.5.4-1.3.6-2.4.6H79c-1.1 0-1.9-.2-2.4-.6-.5-.4-.7-1-.7-1.7s.2-1.2.7-1.7c.5-.4 1.3-.6 2.4-.6h5.5V152h-3.7c-1.1 0-1.9-.2-2.4-.6-.5-.4-.7-1-.7-1.7s.2-1.2.7-1.7c.5-.4 1.3-.6 2.4-.6h8.4zm-.7-8.8v4.9h-5.4v-4.9h5.4zm75 9.6c.6-.5 1.1-.8 1.7-.8.7 0 1.2.2 1.6.7.4.5.6 1.3.6 2.3v3c0 1.1-.2 1.9-.6 2.4-.4.5-1 .7-1.7.7-.6 0-1.2-.2-1.6-.5-.3-.3-.6-.8-.7-1.7-.2-.8-.6-1.4-1.3-1.9-1.2-.7-2.8-1.1-4.6-1.1-2.2 0-3.9.6-5.2 1.9-1.3 1.3-2 2.9-2 4.8 0 1.8.6 3.2 1.9 4.3 1.3 1 3.3 1.6 6.3 1.6 1.9 0 3.5-.2 4.7-.6.7-.2 1.4-.6 2-1.2.6-.6 1.2-.9 1.8-.9.6 0 1.2.2 1.6.7.5.5.7 1 .7 1.6 0 1-.7 2-2.1 2.9-2.1 1.4-5.1 2-9.1 2-3.6 0-6.4-.7-8.4-2.2-2.7-2-4-4.7-4-8.2 0-3.3 1.1-6 3.3-8.1 2.2-2.1 5-3.2 8.6-3.2 1.3 0 2.5.1 3.5.4 1.1.3 2.1.6 3 1.1zm75.4 9.8c0 1.8-.5 3.5-1.5 5.1-1 1.7-2.4 3-4.4 4-1.9 1-4 1.5-6.1 1.5-2.1 0-4.1-.5-6-1.4-1.9-1-3.4-2.3-4.4-3.9-1-1.7-1.5-3.4-1.5-5.2 0-1.8.5-3.6 1.5-5.4 1-1.8 2.5-3.2 4.4-4.2 1.9-1 3.9-1.5 6-1.5s4.1.5 6.1 1.6c1.9 1 3.4 2.4 4.4 4.2 1 1.5 1.5 3.3 1.5 5.2zm-4.6 0c0-1.5-.5-2.8-1.6-4.1-1.5-1.7-3.4-2.5-5.7-2.5-2.1 0-3.8.7-5.2 2-1.4 1.3-2.1 2.9-2.1 4.6 0 1.4.7 2.8 2.1 4 1.4 1.3 3.1 1.9 5.2 1.9s3.8-.6 5.2-1.9c1.4-1.2 2.1-2.6 2.1-4zm57.95-10.6v1.5c.8-.7 1.8-1.3 2.8-1.6 1-.4 2.1-.5 3.3-.5 2.7 0 4.9.8 6.5 2.5 1.3 1.3 1.9 3.1 1.9 5.3v8.6c1 0 1.7.2 2.2.6.5.4.7 1 .7 1.7s-.2 1.2-.7 1.7c-.5.4-1.3.6-2.4.6h-4.2c-1.1 0-1.9-.2-2.4-.6-.5-.4-.7-1-.7-1.7s.2-1.2.7-1.7c.5-.4 1.2-.6 2.2-.6v-8.7c0-1-.3-1.7-.8-2.2-.7-.6-1.8-.9-3.2-.9-1.1 0-2 .2-2.8.6-.8.4-1.8 1.3-3 2.6v8.6c1.2 0 1.9.1 2.3.3.7.4 1.1 1.1 1.1 2 0 .7-.2 1.2-.7 1.7-.5.4-1.3.6-2.4.6h-5.2c-1.1 0-1.9-.2-2.4-.6-.5-.4-.7-1-.7-1.7 0-.8.4-1.5 1.1-2 .4-.2 1.1-.3 2.3-.3V152c-1 0-1.7-.2-2.2-.7-.5-.5-.7-1-.7-1.7s.2-1.2.7-1.7c.5-.4 1.3-.6 2.4-.6h4.3zm79.75 5.4c-.7-.5-1.5-.8-2.4-1-.8-.2-1.7-.3-2.6-.3-1.8 0-3.2.3-4.2.9-.5.3-.7.5-.7.8 0 .3.3.7.9 1 .5.2 1.5.5 3.2.7 3.1.4 5.2.8 6.4 1.3 1.6.6 2.8 1.4 3.6 2.5.8 1.1 1.3 2.2 1.3 3.5 0 1.6-.7 3-2.2 4.1-2.1 1.6-4.8 2.4-8.1 2.4-1.3 0-2.6-.1-3.7-.3-1.1-.2-2.2-.6-3.1-1-.2.2-.5.3-.7.4-.2.1-.5.2-.8.2-.7 0-1.3-.2-1.7-.7-.4-.5-.6-1.3-.6-2.4v-1.5c0-1.1.2-1.9.6-2.4.4-.5 1-.7 1.7-.7.6 0 1 .2 1.4.5.4.3.7.8.9 1.6.7.6 1.5 1.1 2.5 1.4 1 .3 2.1.5 3.4.5 2.1 0 3.8-.3 4.9-1 .6-.3.8-.7.8-1 0-.6-.4-1.1-1.2-1.5-.8-.4-2.4-.7-4.9-1-3.7-.4-6.2-1.1-7.4-2.2-1.2-1.1-1.9-2.4-1.9-4s.7-3 2.1-4.1c1.9-1.5 4.4-2.2 7.4-2.2 1.1 0 2.1.1 3.1.3 1 .2 1.9.5 2.8.9.3-.2.6-.4.8-.5.2-.1.5-.2.7-.2.6 0 1.2.2 1.6.7.4.5.6 1.3.6 2.4v1.1c0 1-.1 1.7-.4 2-.5.7-1.1 1-2 1-.6 0-1-.2-1.5-.5s-.4-1.2-.6-1.7z" fill="#037f8c"/><path d="M59.7 11.8v4.4c-4.5.8-7.9 2.1-10.5 3.7-2.5 1.7-4.5 3.8-5.8 6.3-1.4 2.6-2.1 5.2-2.1 7.9 0 4.1.7 9.3 2.1 15.4 1.5 6.6 2.3 12.2 2.3 16.7 0 5-1.5 9.8-4.4 14.4-2.9 4.6-6.7 8.3-11.5 11.1-3.2 1.9-8.3 3.8-15.1 5.7 7.5 2.3 12.9 4.6 16.2 6.8 4.9 3.2 8.7 7.1 11.2 11.6s3.8 8.9 3.8 13.3c0 3.5-.7 8.4-2.2 14.9-1.6 6.4-2.3 11.8-2.3 16.2 0 3.1.7 6 2.1 8.7 1.4 2.7 3.3 4.8 5.6 6.4 2.4 1.6 5.9 2.8 10.7 3.8v4.4c-5.6 0-9.6-.3-12-.8-4.8-1.1-9.3-3.1-13.6-6-4.3-2.9-7.7-6.5-10.1-10.8-2.4-4.3-3.6-8.6-3.6-13 0-4.1 1-9.9 2.9-17.5 1.4-5.7 2.1-10.7 2.1-14.9 0-5.6-1.8-10.2-5.4-13.9-3-3-7.4-5-13.2-6v-5.8c4.3-.7 7.7-1.9 10.2-3.6 2.5-1.7 4.5-4.1 6.1-7.2 1.5-3.1 2.3-6.4 2.3-9.9 0-4.1-.7-8.9-2-14.3-1.9-7.6-2.8-13.2-2.8-16.9 0-3.6.9-7.3 2.7-11.1 1.8-3.8 4.4-7.2 7.8-10.2 3.3-3 7.2-5.2 11.6-6.8 4.3-1.9 9.9-2.8 16.9-3z" transform="translate(-6.9 -11.4)" fill="#bf0f30" filter="url(#b)"/><path d="M406.3 183v-4.4c4.5-.9 8-2.2 10.5-3.8 2.5-1.6 4.5-3.7 5.9-6.3 1.4-2.5 2.1-5.2 2.1-7.9 0-4.1-.7-9.3-2.2-15.4-1.6-6.6-2.4-12.1-2.4-16.5 0-5 1.5-9.8 4.4-14.4 2.9-4.6 6.8-8.3 11.5-11.2 3.2-1.9 8.2-3.8 15.1-5.6-7.5-2.4-12.9-4.6-16.3-6.9-5-3.2-8.7-7-11.2-11.5s-3.8-8.9-3.8-13.3c0-3.5.8-8.5 2.4-14.9 1.5-6.4 2.3-11.9 2.3-16.3 0-3.1-.7-6-2.1-8.7-1.4-2.7-3.3-4.8-5.7-6.3-2.4-1.6-5.9-2.8-10.6-3.8v-4.4c5.6 0 9.6.3 11.9.9 4.8 1 9.4 3 13.7 5.9 4.3 2.9 7.7 6.5 10.1 10.9 2.4 4.3 3.6 8.6 3.6 12.9 0 4.1-1 10-3 17.6-1.5 5.7-2.2 10.6-2.2 14.8 0 5.6 1.8 10.3 5.4 14 3 3 7.4 5 13.2 6v5.8c-4.4.7-7.8 1.9-10.3 3.6-2.5 1.7-4.5 4.1-6 7.2-1.6 3.1-2.3 6.4-2.3 9.9 0 4.2.7 9 2.1 14.3 1.9 7.6 2.9 13.3 2.9 16.9 0 3.6-.9 7.3-2.7 11.1-1.8 3.8-4.4 7.2-7.8 10.2-3.4 3-7.2 5.3-11.6 6.8-4.3 1.6-10 2.5-16.9 2.8z" transform="translate(-2.9 -11.4)" fill="#bf0f30" filter="url(#c)"/></svg>