
<svg width="145px" height="128px" viewBox="0 0 145 128" version="1.1" xmlns="http://www.w3.org/2000/svg" xmlns:xlink="http://www.w3.org/1999/xlink">
    <g id="页面-1" stroke="none" stroke-width="1" fill="none" fill-rule="evenodd">
        <g id="3" transform="translate(-17.000000, 10.000000)">
            <path d="M118.670933,15.3101553 C108.942046,5.83590615 95.6525475,0 81,0 C51.1766235,0 27,24.1766235 27,54 C27,83.8233765 51.1766235,108 81,108 C96.0046922,108 109.580032,101.880214 119.366175,92.0004868" id="路径" stroke="#fff" stroke-width="20"></path>
            <g id="箭头" transform="translate(58.000000, 26.161865)" fill="#745FB5">
                <path d="M36.6585617,42.7686795 L24.8268265,28.0921301 L38,12.011247 L21.5241163,0 L0,28.0921301 L21.5241163,56 L36.2507242,45.6607796 C37.1547396,45.0260907 37.3730718,43.7787244 36.738383,42.874709 C36.7129562,42.8384926 36.6863344,42.8031299 36.6585617,42.7686795 Z" id="路径-2"></path>
                <polygon id="路径-2备份" transform="translate(84.209290, 28.000000) scale(-1, 1) translate(-84.209290, -28.000000) " points="103.20929 44.4326523 90.0361165 28.0921301 103.20929 12.011247 86.7334063 0 65.20929 28.0921301 86.7334063 56"></polygon>
            </g>
        </g>
    </g>
</svg>