<svg xmlns="http://www.w3.org/2000/svg" viewBox="0 0 100 100" width="200px" height="200px"><path fill="#ee3e54" d="M13 27A2 2 0 1 0 13 31A2 2 0 1 0 13 27Z"/><path fill="#f1bc19" d="M77 12A1 1 0 1 0 77 14A1 1 0 1 0 77 12Z"/><path fill="#fce0a2" d="M50 13A37 37 0 1 0 50 87A37 37 0 1 0 50 13Z"/><path fill="#f1bc19" d="M83 11A4 4 0 1 0 83 19A4 4 0 1 0 83 11Z"/><path fill="#ee3e54" d="M87 22A2 2 0 1 0 87 26A2 2 0 1 0 87 22Z"/><path fill="#fbcd59" d="M81 74A2 2 0 1 0 81 78 2 2 0 1 0 81 74zM15 59A4 4 0 1 0 15 67 4 4 0 1 0 15 59z"/><path fill="#ee3e54" d="M25 85A2 2 0 1 0 25 89A2 2 0 1 0 25 85Z"/><path fill="#fff" d="M18.5 51A2.5 2.5 0 1 0 18.5 56A2.5 2.5 0 1 0 18.5 51Z"/><path fill="#f1bc19" d="M21 66A1 1 0 1 0 21 68A1 1 0 1 0 21 66Z"/><path fill="#fff" d="M80 33A1 1 0 1 0 80 35A1 1 0 1 0 80 33Z"/><path fill="#78cdd4" d="M37.9 44.7H41V57.2H37.9z"/><path fill="#472b29" d="M37.5 57c-.3 0-.5-.2-.5-.5v-11c0-.3.2-.5.5-.5s.5.2.5.5v11C38 56.8 37.8 57 37.5 57zM41.5 57c-.3 0-.5-.2-.5-.5v-11c0-.3.2-.5.5-.5s.5.2.5.5v11C42 56.8 41.8 57 41.5 57z"/><path fill="#78cdd4" d="M51.4 35.9H55.5V52.2H51.4z" transform="rotate(-65.057 53.473 44.06)"/><path fill="#472b29" d="M57.6,48.6c-0.1,0-0.1,0-0.2,0l-10-4.6c-0.3-0.1-0.4-0.4-0.2-0.7c0.1-0.3,0.4-0.4,0.7-0.2l10,4.6 c0.3,0.1,0.4,0.4,0.2,0.7C58,48.5,57.8,48.6,57.6,48.6z"/><g><path fill="#472b29" d="M59.3,45c-0.1,0-0.1,0-0.2,0l-6.4-3c-0.3-0.1-0.4-0.4-0.2-0.7c0.1-0.3,0.4-0.4,0.7-0.2l6.4,3 c0.3,0.1,0.4,0.4,0.2,0.7C59.7,44.9,59.5,45,59.3,45z"/></g><g><path fill="#78cdd4" d="M47 54.1H63.7V58.300000000000004H47z" transform="rotate(-24.943 55.34 56.155)"/></g><g><path fill="#472b29" d="M52.5,60.2c-0.2,0-0.4-0.1-0.5-0.3c-0.1-0.3,0-0.5,0.2-0.7l6.8-3.2c0.3-0.1,0.5,0,0.7,0.2 c0.1,0.3,0,0.5-0.2,0.7l-6.8,3.2C52.6,60.1,52.5,60.2,52.5,60.2z"/></g><g><path fill="#472b29" d="M47.6,58c-0.2,0-0.4-0.1-0.5-0.3c-0.1-0.3,0-0.5,0.2-0.7l10-4.6c0.3-0.1,0.5,0,0.7,0.2s0,0.5-0.2,0.7l-10,4.6 C47.8,58,47.7,58,47.6,58z"/></g><g><path fill="#78cdd4" d="M66.5 40.7A9.8 9.8 0 1 0 66.5 60.3A9.8 9.8 0 1 0 66.5 40.7Z"/><path fill="#472b29" d="M66.5,41.4c5,0,9.1,4.1,9.1,9.1s-4.1,9.1-9.1,9.1s-9.1-4.1-9.1-9.1S61.5,41.4,66.5,41.4 M66.5,40 C60.7,40,56,44.7,56,50.5S60.7,61,66.5,61S77,56.3,77,50.5S72.3,40,66.5,40L66.5,40z"/></g><g><path fill="#472b29" d="M66.5 57c-3.6 0-6.5-2.9-6.5-6.5s2.9-6.5 6.5-6.5c.3 0 .5.2.5.5S66.8 45 66.5 45c-3 0-5.5 2.5-5.5 5.5 0 3 2.5 5.5 5.5 5.5s5.5-2.5 5.5-5.5c0-.3.2-.5.5-.5s.5.2.5.5C73 54.1 70.1 57 66.5 57zM71.9 48.3c-.2 0-.4-.1-.4-.3-.5-1-1.3-1.8-2.3-2.4-.2-.1-.3-.4-.2-.7.1-.2.4-.3.7-.2 1.2.6 2.1 1.6 2.7 2.8.1.2 0 .5-.2.7C72 48.3 72 48.3 71.9 48.3z"/></g><g><path fill="#78cdd4" d="M39.5 27.7A9.8 9.8 0 1 0 39.5 47.3A9.8 9.8 0 1 0 39.5 27.7Z"/><path fill="#472b29" d="M39.5,28.4c5,0,9.1,4.1,9.1,9.1s-4.1,9.1-9.1,9.1s-9.1-4.1-9.1-9.1S34.5,28.4,39.5,28.4 M39.5,27 C33.7,27,29,31.7,29,37.5S33.7,48,39.5,48S50,43.3,50,37.5S45.3,27,39.5,27L39.5,27z"/></g><g><path fill="#472b29" d="M39.5 44c-3.6 0-6.5-2.9-6.5-6.5s2.9-6.5 6.5-6.5c.3 0 .5.2.5.5S39.8 32 39.5 32c-3 0-5.5 2.5-5.5 5.5s2.5 5.5 5.5 5.5 5.5-2.5 5.5-5.5c0-.3.2-.5.5-.5s.5.2.5.5C46 41.1 43.1 44 39.5 44zM44.9 35.3c-.2 0-.4-.1-.4-.3-.5-1-1.3-1.8-2.3-2.4-.2-.1-.3-.4-.2-.7.1-.2.4-.3.7-.2 1.2.6 2.1 1.6 2.7 2.8.1.2 0 .5-.2.7C45 35.3 45 35.3 44.9 35.3z"/></g><g><path fill="#78cdd4" d="M39.5 54.7A9.8 9.8 0 1 0 39.5 74.3A9.8 9.8 0 1 0 39.5 54.7Z"/><path fill="#472b29" d="M39.5,55.4c5,0,9.1,4.1,9.1,9.1s-4.1,9.1-9.1,9.1s-9.1-4.1-9.1-9.1S34.5,55.4,39.5,55.4 M39.5,54 C33.7,54,29,58.7,29,64.5S33.7,75,39.5,75S50,70.3,50,64.5S45.3,54,39.5,54L39.5,54z"/></g><g><path fill="#472b29" d="M39.5 71c-3.6 0-6.5-2.9-6.5-6.5s2.9-6.5 6.5-6.5c.3 0 .5.2.5.5S39.8 59 39.5 59c-3 0-5.5 2.5-5.5 5.5s2.5 5.5 5.5 5.5 5.5-2.5 5.5-5.5c0-.3.2-.5.5-.5s.5.2.5.5C46 68.1 43.1 71 39.5 71zM44.9 62.3c-.2 0-.4-.1-.4-.3-.5-1-1.3-1.8-2.3-2.4-.2-.1-.3-.4-.2-.7s.4-.3.7-.2c1.2.6 2.1 1.6 2.7 2.8.1.2 0 .5-.2.7C45 62.3 45 62.3 44.9 62.3z"/></g></svg>