<svg xmlns="http://www.w3.org/2000/svg" viewBox="0 0 64 64" width="512px" height="512px"><linearGradient id="zOm5t~IPOzex~qxKHrMq9a" x1="32" x2="32" y1="6" y2="58" gradientUnits="userSpaceOnUse" spreadMethod="reflect"><stop offset="0" stop-color="#1a6dff"/><stop offset="1" stop-color="#c822ff"/></linearGradient><path fill="url(#zOm5t~IPOzex~qxKHrMq9a)" d="M58.52,24.8c-0.11-0.45-0.51-0.77-0.97-0.77c-0.03,0-0.05,0.01-0.08,0.01 c-0.47-3.3-1.5-7.41-3.85-9.73c-0.32-0.33-0.84-0.39-1.23-0.13c-0.17,0.11-0.3,0.27-0.38,0.45c-0.96-1.08-2.26-2.2-3.83-3.02 c-0.03-0.02-0.04-0.05-0.06-0.07C43.52,7.91,37.99,6,32.13,6c-7.03,0-13.73,3.13-18.6,8.18c-0.36-0.75-0.69-1.93-0.89-3.31 c-0.05-0.38-0.33-0.7-0.7-0.81s-0.77,0-1.02,0.29c-2.84,3.14-2.93,8.7-2.91,10.16C5.56,24.08,5,25.57,5,26.91 c0,0.92,0.11,1.35,0.4,1.64c0.15,0.15,0.33,0.25,0.53,0.28c-0.27,1.18-0.51,2.68-0.51,4.35C5.42,43.59,14.65,58,31.99,58 c11.32,0,17.93-6.73,21.48-12.38C57.5,39.19,59,31.94,59,28.9C59,26.83,58.64,25.32,58.52,24.8z M32.13,8c2.98,0,5.85,0.55,8.55,1.6 c-0.89-0.08-1.59-0.12-2.6-0.13c-0.56-0.01-1.07,0.43-1.07,1c0,0.55,0.44,1,0.99,1h0.07c1.47,0.02,2.09,0.52,2.91,1.07 c-0.53,0.08-0.97,0.22-1.28,0.32c-0.39,0.14-0.66,0.5-0.67,0.92c-0.01,0.41,0.23,0.79,0.61,0.96c4.04,1.72,8.61,3.78,9.91,6.85 c-0.63-0.36-1.23-0.61-1.63-0.58c-0.36,0.02-0.67,0.23-0.83,0.55c-0.16,0.31-0.14,0.69,0.05,0.99c1.79,2.83,1.92,5.43,1.51,7.71 c-0.55-0.64-1.08-1.01-1.12-1.04c-0.33-0.23-0.76-0.24-1.1-0.03c-0.34,0.21-0.52,0.61-0.46,1c0.01,0.06,0.66,3.78-0.27,7.48 c-0.1-0.3-0.34-0.54-0.64-0.63c-0.42-0.13-0.88,0.03-1.12,0.39c-0.05,0.07-4.45,6.55-9.59,6.55c-3.22,0-5.37-1.03-6.78-2.05 c2.54-0.36,4.86-1.61,6.86-3.68l0.07-0.08c0.39-0.27,0.89-0.38,1.29-0.26c0.5,0.13,1.06,0.01,1.51-0.34 c0.44-0.33,0.69-0.84,0.69-1.37c0-0.49-0.24-0.98-0.72-1.46c-0.9-0.89-2.69-1.74-4.64-1.74c0,0,0,0-0.01,0 c-1.66,0-2.53,0.75-3.26,1.31c-0.63,0.49-1.12,0.67-2.07,0.67c-1.75,0-4.41-2.21-5.23-3.15c0.12-0.26,0.37-0.72,0.89-0.85 c1.08,0.18,2.03,0.52,2.75,0.73c0.58,0.18,0.9,0.28,1.18,0.29c0.51,0.02,0.93-0.33,1.01-0.82c0.3-1.67-0.19-3.44-0.72-4.63 c0.75-0.74,2-1.6,2.45-1.92c0.66-0.46,1.36-1.52,1.36-2.38c0-0.81-0.62-1.32-1.19-1.45c-0.06-0.02-0.12-0.03-0.18-0.03 c-0.02,0-0.58-0.02-1.51-0.1c-1.04-0.09-0.8-0.18-1.19-0.59c-0.15-0.14-0.31-0.31-0.52-0.5c-0.38-0.33-1.06-0.97-1.41-1.39 c0.06-0.57,0.23-2.21,2.67-4.44c0.31-0.28,0.41-0.71,0.26-1.1c-0.15-0.39-0.52-0.64-0.92-0.64c-2.67,0-5.5,2.3-6.6,3.26 C19.93,15.13,19.28,15,18.48,15c-1.71,0-3.03,0.58-3.74,0.85c-0.01,0-0.02-0.01-0.02-0.02C19.23,11.01,25.52,8,32.13,8z M57.01,29.12c0,2.83-1.42,9.36-5.23,15.43C48.5,49.77,42.41,56,31.99,56C15.95,56,7.41,42.74,7.41,33.18 c0-3.38,1.12-6.09,1.13-6.12c0.18-0.42,0.05-0.91-0.31-1.19c-0.18-0.14-0.4-0.21-0.61-0.21c-0.14,0-0.27,0.03-0.4,0.08 c0.31-0.85,1.09-2.15,2.61-4.36c0.12-0.18,0.18-0.39,0.17-0.61c0-0.05-0.19-4.12,1.22-7.22c1.05,3.2,2.78,4.24,3.02,4.36 c0.27,0.12,0.57,0.11,0.84-0.03c0.02,0,1.38-0.88,3.4-0.88c1.01,0,1.7,0.31,1.7,0.31c0.38,0.18,0.83,0.11,1.13-0.18 c0.46-0.45,1.45-1.33,2.58-2.01c-1.29,2.02-0.82,3.41-0.79,3.61c0.03,0.17,0.11,0.33,0.22,0.47c0.04,0.05,1.06,1.27,1.74,1.88 c0.17,0.15,0.3,0.29,0.42,0.4c0.69,0.7,0.85,1.05,2.45,1.18c0.31,0.03,0.58,0.05,0.8,0.06c-0.08,0.12-0.17,0.22-0.25,0.27 c-0.02,0.02-2.36,1.58-3.29,2.76c-0.24,0.3-0.25,0.75-0.09,1.1c0.51,1,0.76,1.99,0.86,2.85c-0.76-0.23-1.69-0.55-2.79-0.73 c-0.1-0.01-0.21-0.01-0.31,0c-1.98,0.3-2.88,2.2-2.88,3.07c0,0.09,0.01,0.18,0.04,0.27c0.24,0.87,4.25,4.67,7.27,4.67 c1.63,0,2.54-0.46,3.26-1.02c0.63-0.49,1.09-0.95,2.08-0.95c1.19,0,2.27,0.42,2.87,0.84c-0.75-0.02-1.52,0.23-2.16,0.69 c-0.06,0.04-0.18,0.14-0.34,0.31c-2.24,2.31-4.91,3.38-7.91,3.14c-0.42-0.03-0.82,0.21-0.99,0.59c-0.18,0.39-0.09,0.85,0.22,1.15 l0.23,0.22c1.13,1.11,4.09,4.03,9.8,4.03c3.78,0,7.09-2.63,9.09-4.73c-0.09,0.51-0.2,0.98-0.35,1.34c-0.17,0.44-0.02,0.95,0.36,1.22 c0.4,0.27,0.92,0.21,1.26-0.12c2.77-2.75,3.36-7.02,3.42-10.12c0.17,0.23,0.41,0.38,0.71,0.41c0.46,0.04,0.89-0.24,1.04-0.68 c0.77-2.33,1.44-5.19,0.46-8.48c0.23,0.18,0.54,0.25,0.84,0.18c0.41-0.1,0.73-0.46,0.76-0.9c0.33-4.6-3.74-7.46-8.13-9.67 c0.09-0.05,0.16-0.12,0.24-0.2c0.23-0.26,0.31-0.63,0.2-0.97c-0.1-0.32-0.32-0.7-0.64-1.09c4.62,1.19,7.85,3.61,8.95,7.16 c0.14,0.46,0.6,0.75,1.06,0.7c0.36-0.05,0.66-0.28,0.8-0.59c0.89,2.71,1.34,6.53,1.34,8.56c0,0.29,0.14,0.57,0.36,0.76 c0.23,0.19,0.53,0.28,0.82,0.22c0.02,0,0.05-0.01,0.07-0.01V29.12z"/><linearGradient id="zOm5t~IPOzex~qxKHrMq9b" x1="32.135" x2="32.135" y1="8" y2="43.98" gradientUnits="userSpaceOnUse" spreadMethod="reflect"><stop offset="0" stop-color="#6dc7ff"/><stop offset="1" stop-color="#e6abff"/></linearGradient><path fill="url(#zOm5t~IPOzex~qxKHrMq9b)" d="M47.14,22.55c1.79,2.83,1.92,5.43,1.51,7.71c-0.55-0.64-1.08-1.01-1.12-1.04 c-0.33-0.23-0.76-0.24-1.1-0.03c-0.34,0.21-0.52,0.61-0.46,1c0.01,0.06,0.66,3.78-0.27,7.48c-0.1-0.3-0.34-0.54-0.64-0.63 c-0.42-0.13-0.88,0.03-1.12,0.39c-0.05,0.07-4.45,6.55-9.59,6.55c-3.22,0-5.37-1.03-6.78-2.05c2.54-0.36,4.86-1.61,6.86-3.68 l0.07-0.08c0.39-0.27,0.89-0.38,1.29-0.26c0.5,0.13,1.06,0.01,1.51-0.34c0.44-0.33,0.69-0.84,0.69-1.37c0-0.49-0.24-0.98-0.72-1.46 c-0.9-0.89-2.69-1.74-4.64-1.74c0,0,0,0-0.01,0c-1.66,0-2.53,0.75-3.26,1.31c-0.63,0.49-1.12,0.67-2.07,0.67 c-1.75,0-4.41-2.21-5.23-3.15c0.12-0.26,0.37-0.72,0.89-0.85c1.08,0.18,2.03,0.52,2.75,0.73c0.58,0.18,0.9,0.28,1.18,0.29 c0.51,0.02,0.93-0.33,1.01-0.82c0.3-1.67-0.19-3.44-0.72-4.63c0.75-0.74,2-1.6,2.45-1.92c0.66-0.46,1.36-1.52,1.36-2.38 c0-0.81-0.62-1.32-1.19-1.45c-0.06-0.02-0.12-0.03-0.18-0.03c-0.02,0-0.58-0.02-1.51-0.1c-1.04-0.09-0.8-0.18-1.19-0.59 c-0.15-0.14-0.31-0.31-0.52-0.5c-0.38-0.33-1.06-0.97-1.41-1.39c0.06-0.57,0.23-2.21,2.67-4.44c0.31-0.28,0.41-0.71,0.26-1.1 c-0.15-0.39-0.52-0.64-0.92-0.64c-2.67,0-5.5,2.3-6.6,3.26C19.93,15.13,19.28,15,18.48,15c-1.71,0-3.03,0.58-3.74,0.85 c-0.01,0-0.02-0.01-0.02-0.02C19.23,11.01,25.52,8,32.13,8c2.98,0,5.85,0.55,8.55,1.6c-0.89-0.08-1.59-0.12-2.6-0.13 c-0.56-0.01-1.07,0.43-1.07,1c0,0.55,0.44,1,0.99,1h0.07c1.47,0.02,2.09,0.52,2.91,1.07c-0.53,0.08-0.97,0.22-1.28,0.32 c-0.39,0.14-0.66,0.5-0.67,0.92c-0.01,0.41,0.23,0.79,0.61,0.96c4.04,1.72,8.61,3.78,9.91,6.85c-0.63-0.36-1.23-0.61-1.63-0.58 c-0.36,0.02-0.67,0.23-0.83,0.55C46.93,21.87,46.95,22.25,47.14,22.55z"/></svg>