<svg xmlns="http://www.w3.org/2000/svg" xmlns:xlink="http://www.w3.org/1999/xlink" width="88px" height="78px" viewBox="0 0 88 78" version="1.1">
    <!-- Generator: Sketch 53 (72520) - https://sketchapp.com -->
    <title>blue copy 2</title>
    <desc>Created with Sketch.</desc>
    <g id="Palette" stroke="none" stroke-width="1" fill="none" fill-rule="evenodd">
        <g id="blue-copy-2" transform="translate(1.000000, 1.000000)">
            <path d="M22.0423673,21.5466617 L22.0423673,32.4709919 L33.1039965,32.4595708 C33.2444678,32.4595708 33.3726397,32.4557637 33.5001644,32.4475151 C36.4086323,32.2552591 38.6820663,29.8637971 38.6820663,27.0034335 C38.6820663,23.9939604 36.1853023,21.5466617 33.1150011,21.5466617 L22.0423673,21.5466617 Z M11.1024368,75.5039827 C5.06087639,75.5039827 0.162506331,70.7032925 0.162506331,64.7807916 L0.162506331,44.3439122 C0.123019008,43.9733593 0.101657013,43.5964613 0.101657013,43.2151218 C0.10100968,42.8268027 0.121724341,42.4435597 0.162506331,42.0653927 L0.162506331,10.8234706 C0.162506331,4.90096968 5.06087639,0.099645004 11.1024368,0.099645004 L33.1150011,0.099645004 C48.2496505,0.099645004 60.5625747,12.1686283 60.5625747,27.0034335 C60.5625747,41.1079196 49.3235762,52.8977192 34.976084,53.8444057 C34.3662961,53.8856487 33.7377356,53.9065875 33.1150011,53.9065875 L22.0423673,53.9173741 L22.0423673,64.7807916 C22.0423673,70.7032925 17.1446446,75.5039827 11.1024368,75.5039827 L11.1024368,75.5039827 Z" id="Fill-1" fill="#A2DDEF"/>
            <path d="M22.0423673,21.5466617 L22.0423673,32.4709919 L33.1039965,32.4595708 C33.2444678,32.4595708 33.3726397,32.4557637 33.5001644,32.4475151 C36.4086323,32.2552591 38.6820663,29.8637971 38.6820663,27.0034335 C38.6820663,23.9939604 36.1853023,21.5466617 33.1150011,21.5466617 L22.0423673,21.5466617 Z M11.1024368,75.5039827 C5.06087639,75.5039827 0.162506331,70.7032925 0.162506331,64.7807916 L0.162506331,44.3439122 C0.123019008,43.9733593 0.101657013,43.5964613 0.101657013,43.2151218 C0.10100968,42.8268027 0.121724341,42.4435597 0.162506331,42.0653927 L0.162506331,10.8234706 C0.162506331,4.90096968 5.06087639,0.099645004 11.1024368,0.099645004 L33.1150011,0.099645004 C48.2496505,0.099645004 60.5625747,12.1686283 60.5625747,27.0034335 C60.5625747,41.1079196 49.3235762,52.8977192 34.976084,53.8444057 C34.3662961,53.8856487 33.7377356,53.9065875 33.1150011,53.9065875 L22.0423673,53.9173741 L22.0423673,64.7807916 C22.0423673,70.7032925 17.1446446,75.5039827 11.1024368,75.5039827 Z" id="Stroke-3" stroke="#368BD6" stroke-width="1.93776283"/>
            <path d="M11.1025016,64.7806012 L11.1025016,10.8232803 L33.1150659,10.8232803 C42.2314588,10.8232803 49.6220616,18.0674621 49.6220616,27.0032431 C49.6220616,35.5684713 42.832184,42.5791541 34.2414256,43.1457701 C33.8685617,43.1705159 33.4937558,43.183206 33.1150659,43.183206 L11.0416522,43.2047793" id="Stroke-5" stroke="#368BD6" stroke-width="1.93776283" stroke-linecap="round"/>
            <path d="M20.1171338,4.67330808 C21.794374,7.01908545 22.4384705,9.8654899 21.9309613,12.6846105 C21.4228048,15.5056346 19.8238918,17.9630854 17.4287591,19.6058276 C12.4837811,22.9972747 5.64341151,21.8164547 2.18082641,16.9732524 C0.503586176,14.6274751 -0.140510324,11.7817051 0.367646211,8.9613155 C0.875155413,6.14092589 2.47406833,3.68284055 4.86984838,2.04073294 C9.81482643,-1.35071418 16.6545487,-0.169894143 20.1171338,4.67330808 Z M49.7121056,75.4978279 C46.2644092,75.4978279 42.8723834,73.905212 40.7433046,70.9274643 L25.2817519,49.2996127 C21.8146355,44.4494309 23.0154385,37.7623474 27.9630059,34.3645552 C32.9105733,30.964225 39.7328175,32.1418725 43.199934,36.9920543 L58.6614866,58.6199059 C62.1292504,63.4700877 60.9284474,70.1571712 55.98088,73.5549634 C54.0699525,74.8677611 51.8800244,75.4978279 49.7121056,75.4978279 Z" id="Combined-Shape" fill="#368BD6"/>
        </g>
    </g>
</svg>